<svg width="540" height="540" viewBox="0 0 540 540" fill="none" xmlns="http://www.w3.org/2000/svg">
<rect width="540" height="540" fill="#FF3402"/>
<path d="M413.296 370.207C365.245 370.207 325.931 357.094 282.248 409.548C242.934 358.146 163.484 370.207 120.622 370.207C108.44 344.709 107.518 324.715 120.623 294.118H190.515H413.296C434.25 313.545 431.822 356.447 413.296 370.207Z" fill="#CFCFCF"/>
<path fill-rule="evenodd" clip-rule="evenodd" d="M251.461 131C245.938 131 241.461 135.477 241.461 141V238.701L183.327 169.42C179.777 165.189 173.47 164.638 169.239 168.188L126.892 203.721C122.661 207.271 122.109 213.579 125.659 217.809L176.436 278.323H120.486C107.381 308.921 108.303 328.915 120.486 354.413C126.802 354.413 133.913 354.151 141.573 353.869C185.892 352.236 248.591 349.927 282.112 393.753C318.34 350.25 351.565 351.847 389.26 353.658C397.015 354.031 404.96 354.413 413.159 354.413C431.685 340.652 434.114 297.75 413.159 278.323H376.964L427.061 218.619C430.611 214.388 430.059 208.081 425.829 204.531L383.481 168.997C379.251 165.447 372.943 165.999 369.393 170.23L316.741 232.978V141C316.741 135.477 312.264 131 306.741 131H251.461Z" fill="white"/>
</svg>
