<svg width="666" height="169" viewBox="0 0 666 169" fill="none" xmlns="http://www.w3.org/2000/svg">
<path d="M182.649 144.53C153.616 144.53 129.862 136.607 103.469 168.3C79.7152 137.243 31.711 144.53 5.8141 144.53C-1.54664 129.124 -2.10395 117.044 5.81412 98.5565H48.0433H182.649C195.31 110.295 193.842 136.216 182.649 144.53Z" fill="#C62802"/>
<path d="M182.566 134.987C153.534 134.987 129.78 127.064 103.387 158.757C79.6326 127.7 31.6284 134.987 5.73146 134.987C-1.62928 119.581 -2.18659 107.501 5.73148 89.0132H47.9607H182.566C195.227 100.751 193.76 126.673 182.566 134.987Z" fill="#FF3402"/>
<rect x="78.8249" width="45.4848" height="95.8604" rx="10" fill="#FF3402"/>
<rect x="160.006" y="19.0742" width="45.4848" height="95.8604" rx="10" transform="rotate(40 160.006 19.0742)" fill="#FF3402"/>
<rect x="4.97327" y="47.8223" width="45.4848" height="95.8604" rx="10" transform="rotate(-40 4.97327 47.8223)" fill="#FF3402"/>
<path d="M311.513 118.15L297.497 92.7099H293.561V118.15H277.145V50.7579H304.697C310.009 50.7579 314.521 51.6859 318.233 53.5419C322.009 55.3979 324.825 57.9579 326.681 61.2219C328.537 64.4219 329.465 68.0059 329.465 71.9739C329.465 76.4539 328.185 80.4539 325.625 83.9739C323.129 87.4939 319.417 89.9899 314.489 91.4619L330.041 118.15H311.513ZM293.561 81.0939H303.737C306.745 81.0939 308.985 80.3579 310.457 78.8859C311.993 77.4139 312.761 75.3339 312.761 72.6459C312.761 70.0859 311.993 68.0699 310.457 66.5979C308.985 65.1259 306.745 64.3899 303.737 64.3899H293.561V81.0939ZM336.506 91.2699C336.506 85.7659 337.53 80.9339 339.578 76.7739C341.69 72.6139 344.538 69.4139 348.122 67.1739C351.706 64.9339 355.706 63.8139 360.122 63.8139C363.898 63.8139 367.194 64.5819 370.01 66.1179C372.89 67.6539 375.098 69.6699 376.634 72.1659V64.5819H393.05V118.15H376.634V110.566C375.034 113.062 372.794 115.078 369.914 116.614C367.098 118.15 363.802 118.918 360.026 118.918C355.674 118.918 351.706 117.798 348.122 115.558C344.538 113.254 341.69 110.022 339.578 105.862C337.53 101.638 336.506 96.7739 336.506 91.2699ZM376.634 91.3659C376.634 87.2699 375.482 84.0379 373.178 81.6699C370.938 79.3019 368.186 78.1179 364.922 78.1179C361.658 78.1179 358.874 79.3019 356.57 81.6699C354.33 83.9739 353.21 87.1739 353.21 91.2699C353.21 95.3659 354.33 98.6299 356.57 101.062C358.874 103.43 361.658 104.614 364.922 104.614C368.186 104.614 370.938 103.43 373.178 101.062C375.482 98.6939 376.634 95.4619 376.634 91.3659ZM421.343 73.5099C423.263 70.5659 425.663 68.2619 428.543 66.5979C431.423 64.8699 434.623 64.0059 438.143 64.0059V81.3819H433.631C429.535 81.3819 426.463 82.2779 424.415 84.0699C422.367 85.7979 421.343 88.8699 421.343 93.2859V118.15H404.927V64.5819H421.343V73.5099ZM442.725 91.2699C442.725 85.7659 443.749 80.9339 445.797 76.7739C447.909 72.6139 450.757 69.4139 454.341 67.1739C457.925 64.9339 461.925 63.8139 466.341 63.8139C470.117 63.8139 473.413 64.5819 476.229 66.1179C479.109 67.6539 481.317 69.6699 482.853 72.1659V64.5819H499.269V118.15H482.853V110.566C481.253 113.062 479.013 115.078 476.133 116.614C473.317 118.15 470.021 118.918 466.245 118.918C461.893 118.918 457.925 117.798 454.341 115.558C450.757 113.254 447.909 110.022 445.797 105.862C443.749 101.638 442.725 96.7739 442.725 91.2699ZM482.853 91.3659C482.853 87.2699 481.701 84.0379 479.397 81.6699C477.157 79.3019 474.405 78.1179 471.141 78.1179C467.877 78.1179 465.093 79.3019 462.789 81.6699C460.549 83.9739 459.429 87.1739 459.429 91.2699C459.429 95.3659 460.549 98.6299 462.789 101.062C465.093 103.43 467.877 104.614 471.141 104.614C474.405 104.614 477.157 103.43 479.397 101.062C481.701 98.6939 482.853 95.4619 482.853 91.3659ZM545.513 118.15L531.497 92.7099H527.561V118.15H511.145V50.7579H538.697C544.009 50.7579 548.521 51.6859 552.233 53.5419C556.009 55.3979 558.825 57.9579 560.681 61.2219C562.537 64.4219 563.465 68.0059 563.465 71.9739C563.465 76.4539 562.185 80.4539 559.625 83.9739C557.129 87.4939 553.417 89.9899 548.489 91.4619L564.041 118.15H545.513ZM527.561 81.0939H537.737C540.745 81.0939 542.985 80.3579 544.457 78.8859C545.993 77.4139 546.761 75.3339 546.761 72.6459C546.761 70.0859 545.993 68.0699 544.457 66.5979C542.985 65.1259 540.745 64.3899 537.737 64.3899H527.561V81.0939ZM582.026 59.0139C579.146 59.0139 576.778 58.1819 574.922 56.5179C573.13 54.7899 572.234 52.6779 572.234 50.1819C572.234 47.6219 573.13 45.5099 574.922 43.8459C576.778 42.1179 579.146 41.2539 582.026 41.2539C584.842 41.2539 587.146 42.1179 588.938 43.8459C590.794 45.5099 591.722 47.6219 591.722 50.1819C591.722 52.6779 590.794 54.7899 588.938 56.5179C587.146 58.1819 584.842 59.0139 582.026 59.0139ZM590.186 64.5819V118.15H573.77V64.5819H590.186ZM618.499 73.5099C620.419 70.5659 622.819 68.2619 625.699 66.5979C628.579 64.8699 631.779 64.0059 635.299 64.0059V81.3819H630.787C626.691 81.3819 623.619 82.2779 621.571 84.0699C619.523 85.7979 618.499 88.8699 618.499 93.2859V118.15H602.083V64.5819H618.499V73.5099ZM651.401 59.0139C648.521 59.0139 646.153 58.1819 644.297 56.5179C642.505 54.7899 641.609 52.6779 641.609 50.1819C641.609 47.6219 642.505 45.5099 644.297 43.8459C646.153 42.1179 648.521 41.2539 651.401 41.2539C654.217 41.2539 656.521 42.1179 658.313 43.8459C660.169 45.5099 661.097 47.6219 661.097 50.1819C661.097 52.6779 660.169 54.7899 658.313 56.5179C656.521 58.1819 654.217 59.0139 651.401 59.0139ZM659.561 64.5819V118.15H643.145V64.5819H659.561Z" fill="black"/>
</svg>
