<svg width="799" height="169" viewBox="0 0 799 169" fill="none" xmlns="http://www.w3.org/2000/svg">
<path d="M182.649 144.53C153.616 144.53 129.862 136.607 103.469 168.3C79.7152 137.243 31.711 144.53 5.8141 144.53C-1.54664 129.124 -2.10395 117.044 5.81412 98.5565H48.0433H182.649C195.31 110.295 193.842 136.216 182.649 144.53Z" fill="#CECECE"/>
<path d="M182.566 134.987C153.534 134.987 129.78 127.064 103.387 158.757C79.6326 127.7 31.6284 134.987 5.73146 134.987C-1.62928 119.581 -2.18659 107.501 5.73148 89.0132H47.9607H182.566C195.227 100.751 193.76 126.673 182.566 134.987Z" fill="white"/>
<rect x="78.8249" width="45.4848" height="95.8604" rx="10" fill="white"/>
<rect x="160.006" y="19.0742" width="45.4848" height="95.8604" rx="10" transform="rotate(40 160.006 19.0742)" fill="white"/>
<rect x="4.97327" y="47.8223" width="45.4848" height="95.8604" rx="10" transform="rotate(-40 4.97327 47.8223)" fill="white"/>
<path d="M273.218 105.478H294.722V118.15H256.802V50.7579H273.218V105.478ZM310.808 59.0139C307.928 59.0139 305.56 58.1819 303.704 56.5179C301.912 54.7899 301.016 52.6779 301.016 50.1819C301.016 47.6219 301.912 45.5099 303.704 43.8459C305.56 42.1179 307.928 41.2539 310.808 41.2539C313.624 41.2539 315.928 42.1179 317.72 43.8459C319.576 45.5099 320.504 47.6219 320.504 50.1819C320.504 52.6779 319.576 54.7899 317.72 56.5179C315.928 58.1819 313.624 59.0139 310.808 59.0139ZM318.968 64.5819V118.15H302.552V64.5819H318.968ZM363.504 64.0059C369.776 64.0059 374.768 66.0539 378.48 70.1499C382.256 74.1819 384.144 79.7499 384.144 86.8539V118.15H367.824V89.0619C367.824 85.4779 366.896 82.6939 365.04 80.7099C363.184 78.7259 360.688 77.7339 357.552 77.7339C354.416 77.7339 351.92 78.7259 350.064 80.7099C348.208 82.6939 347.28 85.4779 347.28 89.0619V118.15H330.864V64.5819H347.28V71.6859C348.944 69.3179 351.184 67.4619 354 66.1179C356.816 64.7099 359.984 64.0059 363.504 64.0059ZM415.904 63.8139C419.68 63.8139 422.976 64.5819 425.792 66.1179C428.672 67.6539 430.88 69.6699 432.416 72.1659V64.5819H448.832V118.054C448.832 122.982 447.84 127.43 445.856 131.398C443.936 135.43 440.96 138.63 436.928 140.998C432.96 143.366 428 144.55 422.048 144.55C414.112 144.55 407.68 142.662 402.752 138.886C397.824 135.174 395.008 130.118 394.304 123.718H410.528C411.04 125.766 412.256 127.366 414.176 128.518C416.096 129.734 418.464 130.342 421.28 130.342C424.672 130.342 427.36 129.35 429.344 127.366C431.392 125.446 432.416 122.342 432.416 118.054V110.47C430.816 112.966 428.608 115.014 425.792 116.614C422.976 118.15 419.68 118.918 415.904 118.918C411.488 118.918 407.488 117.798 403.904 115.558C400.32 113.254 397.472 110.022 395.36 105.862C393.312 101.638 392.288 96.7739 392.288 91.2699C392.288 85.7659 393.312 80.9339 395.36 76.7739C397.472 72.6139 400.32 69.4139 403.904 67.1739C407.488 64.9339 411.488 63.8139 415.904 63.8139ZM432.416 91.3659C432.416 87.2699 431.264 84.0379 428.96 81.6699C426.72 79.3019 423.968 78.1179 420.704 78.1179C417.44 78.1179 414.656 79.3019 412.352 81.6699C410.112 83.9739 408.992 87.1739 408.992 91.2699C408.992 95.3659 410.112 98.6299 412.352 101.062C414.656 103.43 417.44 104.614 420.704 104.614C423.968 104.614 426.72 103.43 428.96 101.062C431.264 98.6939 432.416 95.4619 432.416 91.3659ZM513.604 64.5819V118.15H497.188V110.854C495.524 113.222 493.252 115.142 490.372 116.614C487.556 118.022 484.42 118.726 480.964 118.726C476.868 118.726 473.252 117.83 470.116 116.038C466.98 114.182 464.548 111.526 462.82 108.07C461.092 104.614 460.228 100.55 460.228 95.8779V64.5819H476.548V93.6699C476.548 97.2539 477.476 100.038 479.332 102.022C481.188 104.006 483.684 104.998 486.82 104.998C490.02 104.998 492.548 104.006 494.404 102.022C496.26 100.038 497.188 97.2539 497.188 93.6699V64.5819H513.604ZM522.131 91.2699C522.131 85.7659 523.155 80.9339 525.203 76.7739C527.315 72.6139 530.163 69.4139 533.747 67.1739C537.331 64.9339 541.331 63.8139 545.747 63.8139C549.523 63.8139 552.819 64.5819 555.635 66.1179C558.515 67.6539 560.723 69.6699 562.259 72.1659V64.5819H578.675V118.15H562.259V110.566C560.659 113.062 558.419 115.078 555.539 116.614C552.723 118.15 549.427 118.918 545.651 118.918C541.299 118.918 537.331 117.798 533.747 115.558C530.163 113.254 527.315 110.022 525.203 105.862C523.155 101.638 522.131 96.7739 522.131 91.2699ZM562.259 91.3659C562.259 87.2699 561.107 84.0379 558.803 81.6699C556.563 79.3019 553.811 78.1179 550.547 78.1179C547.283 78.1179 544.499 79.3019 542.195 81.6699C539.955 83.9739 538.835 87.1739 538.835 91.2699C538.835 95.3659 539.955 98.6299 542.195 101.062C544.499 103.43 547.283 104.614 550.547 104.614C553.811 104.614 556.563 103.43 558.803 101.062C561.107 98.6939 562.259 95.4619 562.259 91.3659ZM641.912 72.4539C641.912 76.3579 641.016 79.9419 639.224 83.2059C637.432 86.4059 634.68 88.9979 630.968 90.9819C627.256 92.9659 622.648 93.9579 617.144 93.9579H606.968V118.15H590.552V50.7579H617.144C622.52 50.7579 627.064 51.6859 630.776 53.5419C634.488 55.3979 637.272 57.9579 639.128 61.2219C640.984 64.4859 641.912 68.2299 641.912 72.4539ZM615.896 80.9019C619.032 80.9019 621.368 80.1659 622.904 78.6939C624.44 77.2219 625.208 75.1419 625.208 72.4539C625.208 69.7659 624.44 67.6859 622.904 66.2139C621.368 64.7419 619.032 64.0059 615.896 64.0059H606.968V80.9019H615.896ZM666.874 47.1099V118.15H650.458V47.1099H666.874ZM675.506 91.2699C675.506 85.7659 676.53 80.9339 678.578 76.7739C680.69 72.6139 683.538 69.4139 687.122 67.1739C690.706 64.9339 694.706 63.8139 699.122 63.8139C702.898 63.8139 706.194 64.5819 709.01 66.1179C711.89 67.6539 714.098 69.6699 715.634 72.1659V64.5819H732.05V118.15H715.634V110.566C714.034 113.062 711.794 115.078 708.914 116.614C706.098 118.15 702.802 118.918 699.026 118.918C694.674 118.918 690.706 117.798 687.122 115.558C683.538 113.254 680.69 110.022 678.578 105.862C676.53 101.638 675.506 96.7739 675.506 91.2699ZM715.634 91.3659C715.634 87.2699 714.482 84.0379 712.178 81.6699C709.938 79.3019 707.186 78.1179 703.922 78.1179C700.658 78.1179 697.874 79.3019 695.57 81.6699C693.33 83.9739 692.21 87.1739 692.21 91.2699C692.21 95.3659 693.33 98.6299 695.57 101.062C697.874 103.43 700.658 104.614 703.922 104.614C707.186 104.614 709.938 103.43 712.178 101.062C714.482 98.6939 715.634 95.4619 715.634 91.3659ZM798.647 64.5819L765.047 143.59H747.383L759.671 116.326L737.879 64.5819H756.215L768.599 98.0859L780.887 64.5819H798.647Z" fill="white"/>
</svg>
